<?xml version="1.0" encoding="UTF-8" standalone="no"?>
<svg
   version="1.1"
   x="0"
   y="0"
   xml:space="preserve"
   id="svg26"
   width="17.18"
   height="27.1"
   sodipodi:docname="logo-alura.svg"
   inkscape:version="1.3.2 (091e20e, 2023-11-25, custom)"
   xmlns:inkscape="http://www.inkscape.org/namespaces/inkscape"
   xmlns:sodipodi="http://sodipodi.sourceforge.net/DTD/sodipodi-0.dtd"
   xmlns="http://www.w3.org/2000/svg"
   xmlns:svg="http://www.w3.org/2000/svg"><defs
     id="defs1" /><sodipodi:namedview
     id="namedview1"
     pagecolor="#ffffff"
     bordercolor="#666666"
     borderopacity="1.0"
     inkscape:showpageshadow="2"
     inkscape:pageopacity="0.0"
     inkscape:pagecheckerboard="0"
     inkscape:deskcolor="#d1d1d1"
     inkscape:zoom="11.355289"
     inkscape:cx="40.025403"
     inkscape:cy="17.568906"
     inkscape:window-width="1360"
     inkscape:window-height="745"
     inkscape:window-x="-8"
     inkscape:window-y="-8"
     inkscape:window-maximized="1"
     inkscape:current-layer="g9" /><style
     type="text/css"
     id="style2">.st2{fill:#727374}</style><g
     id="LOGO"
     transform="matrix(0.38077,0,0,0.38077,0,-0.114)"><g
       id="g23"><g
         id="g9"><path
           id="path7"
           class="st2"
           d="m 22.600176,0.29939333 c -3.999996,0 -7.402397,0.50282302 -10.202394,1.10282207 -2.8999976,0.7 -5.2991051,2.0008 -7.0991031,3.400799 -1.899998,1.499998 -3.298398,3.1986809 -4.098398,5.2986786 C 0.40028197,12.001691 0,14.10315 0,16.303148 v 2.297975 c 0,0.5 0.39764697,0.902776 0.89764593,0.902776 H 10.202395 c 0.5,0 0.897647,-0.300188 0.897647,-0.800188 0.1,-2.199997 0.997976,-4.103904 2.297975,-5.703902 1.699998,-1.799998 4.602117,-2.698069 9.002112,-2.698069 2.299998,0 4.098728,0.1976 5.498727,0.697599 1.399998,0.5 2.703387,1.103012 3.503386,1.903011 0.799999,0.899999 1.495293,1.600611 1.795293,2.60061 0.4,0.999999 0.600141,1.79807 0.600141,2.698069 v 2.503152 c 0,1.099999 -0.200141,1.995529 -0.600141,2.795528 -0.3,0.799999 -0.697741,1.403058 -1.29774,2.103057 -0.6,0.5 -1.097835,0.997741 -1.697835,1.297741 -0.499999,0.299999 -1.00287,0.502729 -1.30287,0.702729 -0.399999,0.2 -1.29807,0.400235 -2.698069,1.000234 -1.499998,0.5 -3.101175,0.997836 -5.001173,1.697835 -1.899998,0.799999 -3.898822,1.397929 -5.89882,2.097928 -2.099998,0.699999 -3.80127,1.200423 -5.4012681,1.800423 -3.099998,1.099998 -5.499152,3.101364 -7.29915,5.801361 C 0.90061193,42.801014 0,45.90318 0,49.203176 v 6.196326 c 0,1.599999 0.40023497,3.401223 1.0002339,5.201221 0.5,1.899998 1.598212,3.601222 3.29821,5.20122 1.699999,1.599999 3.999058,3.00094 6.8990561,4.000939 2.899998,0.999999 6.702681,1.600376 11.402676,1.600376 4.699996,0 8.49755,-0.500377 11.397547,-1.600376 2.899997,-1.099999 5.204186,-2.40094 6.904184,-4.000939 1.599998,-1.499998 2.69821,-3.301222 3.29821,-5.20122 0.599999,-1.899998 0.897646,-3.601222 0.897646,-5.201221 V 16.400607 c 0,-4.599996 -1.796141,-8.4001377 -5.396138,-11.5001346 C 36.101629,1.8004754 30.300169,0.29939333 22.600176,0.29939333 Z m 11.397547,35.10054367 0.102588,16.40385 c 0,3.099997 -0.800565,5.59915 -2.400563,7.299148 -1.699999,1.699999 -4.699576,2.600611 -9.099572,2.600611 -4.299995,0 -7.299526,-0.903153 -8.899524,-2.503152 -1.599998,-1.699998 -2.400563,-4.199199 -2.400563,-7.499196 0,-1.699998 0.300235,-3.000987 1.000234,-4.200985 0.7,-1.099999 1.400518,-1.99807 2.200517,-2.698069 0.999999,-0.7 1.998164,-1.300423 3.098163,-1.800423 1.299998,-0.499999 2.898493,-1.000376 4.498491,-1.600375 1.299999,-0.4 2.803576,-0.897788 4.303574,-1.497788 1.499999,-0.499999 2.998446,-1.002917 4.298445,-1.502917 0.699999,-0.299999 1.30047,-0.500235 2.000469,-1.000234 0.6,-0.5 1.097741,-1.100471 1.297741,-2.00047 z"
           style="fill:#008000" /></g></g></g></svg>
